<svg fill="none" height="24" viewBox="0 0 24 24" width="24" xmlns="http://www.w3.org/2000/svg"><g fill="#000"><path d="m13.75 10.5c-.83 0-1.5-.67-1.5-1.5s.67-1.5 1.5-1.5 1.5.67 1.5 1.5-.67 1.5-1.5 1.5zm0-2c-.28 0-.5.22-.5.5s.22.5.5.5.5-.22.5-.5-.22-.5-.5-.5z"/><path d="m10.25 10.5c-.83 0-1.5-.67-1.5-1.5s.67-1.5 1.5-1.5 1.5.67 1.5 1.5-.67 1.5-1.5 1.5zm0-2c-.28 0-.5.22-.5.5s.22.5.5.5.5-.22.5-.5-.22-.5-.5-.5z"/><path d="m15.5 13.5c-.83 0-1.5-.67-1.5-1.5s.67-1.5 1.5-1.5 1.5.67 1.5 1.5-.67 1.5-1.5 1.5zm0-2c-.28 0-.5.22-.5.5s.22.5.5.5.5-.22.5-.5-.22-.5-.5-.5z"/><path d="m17.1504 10.25c-.69 0-1.25-.56-1.25-1.25s.56-1.25 1.25-1.25 1.25.56 1.25 1.25-.56 1.25-1.25 1.25zm0-1.5c-.14 0-.25.11-.25.25 0 .28.5.28.5 0 0-.14-.11-.25-.25-.25z"/><path d="m17.1504 16.25c-.69 0-1.25-.56-1.25-1.25s.56-1.25 1.25-1.25 1.25.56 1.25 1.25-.56 1.25-1.25 1.25zm0-1.5c-.14 0-.25.11-.25.25 0 .28.5.28.5 0 0-.14-.11-.25-.25-.25z"/><path d="m19.75 13.25c-.69 0-1.25-.56-1.25-1.25s.56-1.25 1.25-1.25 1.25.56 1.25 1.25-.56 1.25-1.25 1.25zm0-1.5c-.14 0-.25.11-.25.25 0 .28.5.28.5 0 0-.14-.11-.25-.25-.25z"/><path d="m6.7998 10.25c-.69 0-1.25-.56-1.25-1.25s.56-1.25 1.25-1.25 1.25.56 1.25 1.25-.56 1.25-1.25 1.25zm0-1.5c-.14 0-.25.11-.25.25 0 .28.5.28.5 0 0-.14-.11-.25-.25-.25z"/><path d="m6.7998 16.25c-.69 0-1.25-.56-1.25-1.25s.56-1.25 1.25-1.25 1.25.56 1.25 1.25-.56 1.25-1.25 1.25zm0-1.5c-.14 0-.25.11-.25.25 0 .28.5.28.5 0 0-.14-.11-.25-.25-.25z"/><path d="m4.2002 13.25c-.69 0-1.25-.56-1.25-1.25s.56-1.25 1.25-1.25 1.25.56 1.25 1.25-.56 1.25-1.25 1.25zm0-1.5c-.14 0-.25.11-.25.25 0 .28.5.28.5 0 0-.14-.11-.25-.25-.25z"/><path d="m15.9004 6.4502c-.69 0-1.25-.56-1.25-1.25s.56-1.25 1.25-1.25 1.25.56 1.25 1.25-.56 1.25-1.25 1.25zm0-1.5c-.14 0-.25.11-.25.25 0 .28.5.28.5 0 0-.14-.11-.25-.25-.25z"/><path d="m8.09961 6.4502c-.69 0-1.25-.56-1.25-1.25s.56-1.25 1.25-1.25 1.25.56 1.25 1.25-.56 1.25-1.25 1.25zm0-1.5c-.14 0-.25.11-.25.25 0 .28.5.28.5 0 0-.14-.11-.25-.25-.25z"/><path d="m12.0498 7.25c-.69 0-1.25-.56-1.25-1.25s.56-1.25 1.25-1.25 1.25.56 1.25 1.25-.56 1.25-1.25 1.25zm0-1.5c-.14 0-.25.11-.25.25 0 .28.5.28.5 0 0-.14-.11-.25-.25-.25z"/><path d="m15.9004 20.25c-.69 0-1.25-.56-1.25-1.25s.56-1.25 1.25-1.25 1.25.56 1.25 1.25-.56 1.25-1.25 1.25zm0-1.5c-.14 0-.25.11-.25.25 0 .28.5.28.5 0 0-.14-.11-.25-.25-.25z"/><path d="m8.09961 20.25c-.69 0-1.25-.56-1.25-1.25s.56-1.25 1.25-1.25 1.25.56 1.25 1.25-.56 1.25-1.25 1.25zm0-1.5c-.14 0-.25.11-.25.25 0 .28.5.28.5 0 0-.14-.11-.25-.25-.25z"/><path d="m12.0498 19.4502c-.69 0-1.25-.56-1.25-1.25s.56-1.25 1.25-1.25 1.25.56 1.25 1.25-.56 1.25-1.25 1.25zm0-1.5c-.14 0-.25.11-.25.25 0 .28.5.28.5 0 0-.14-.11-.25-.25-.25z"/><path d="m8.5 13.5c-.83 0-1.5-.67-1.5-1.5s.67-1.5 1.5-1.5 1.5.67 1.5 1.5-.67 1.5-1.5 1.5zm0-2c-.28 0-.5.22-.5.5s.22.5.5.5.5-.22.5-.5-.22-.5-.5-.5z"/><path d="m10.25 16.5c-.83 0-1.5-.67-1.5-1.5s.67-1.5 1.5-1.5 1.5.67 1.5 1.5-.67 1.5-1.5 1.5zm0-2c-.28 0-.5.22-.5.5s.22.5.5.5.5-.22.5-.5-.22-.5-.5-.5z"/><path d="m13.75 16.5c-.83 0-1.5-.67-1.5-1.5s.67-1.5 1.5-1.5 1.5.67 1.5 1.5-.67 1.5-1.5 1.5zm0-2c-.28 0-.5.22-.5.5s.22.5.5.5.5-.22.5-.5-.22-.5-.5-.5z"/><path d="m12.0002 3.4502c-.56 0-1.01-.45-1.01-1s.45-1 1-1 1 .45 1 1-.43 1-.99 1z"/><path d="m17.2502 3.6001c-.42 0-.76-.34-.76-.75s.34-.75.75-.75.76.34.76.75-.33.75-.75.75z"/><path d="m6.75 3.6001c-.41 0-.75-.34-.75-.75s.33-.75.75-.75h.01001c.41 0 .75.34.75.75s-.34001.75-.76001.75z"/><path d="m12.0002 22.5c-.56 0-1.01-.45-1.01-1s.45-1 1-1 1 .45 1 1-.43 1-.99 1z"/><path d="m17.2502 21.8501c-.42 0-.76-.34-.76-.75s.34-.75.75-.75.76.34.76.75-.33.75-.75.75z"/><path d="m6.75 21.8501c-.41 0-.75-.34-.75-.75s.33-.75.75-.75h.01001c.41 0 .75.34.75.75s-.34001.75-.76001.75z"/><path d="m1.5498 13c-.549995 0-.999995-.44-.999995-1 0-.55.45-1 .999995-1 .55 0 1 .45 1 1s-.45 1-1 1z"/><path d="m3.75 17.7502c-.41 0-.75-.33-.75-.75v-.01c0-.41.34-.75.75-.75s.75.34.75.75-.34.76-.75.76z"/><path d="m3.75 7.75977c-.41 0-.75-.34-.75-.75s.34-.75.75-.75.75.33.75.74v.01c0 .41-.34.75-.75.75z"/><path d="m22.5 13c-.55 0-1-.44-1-1 0-.55.45-1 1-1s1 .45 1 1-.45 1-1 1z"/><path d="m20.2998 17.7502c-.41 0-.75-.33-.75-.75v-.01c0-.41.34-.75.75-.75s.75.34.75.75-.34.76-.75.76z"/><path d="m20.2998 7.75977c-.41 0-.75-.34-.75-.75s.34-.75.75-.75.75.33.75.75v.01c0 .4-.34.74-.75.74z"/></g></svg>